<mxfile host="Electron" modified="2024-05-14T18:12:00.651Z" agent="Mozilla/5.0 (Windows NT 10.0; Win64; x64) AppleWebKit/537.36 (KHTML, like Gecko) draw.io/23.1.5 Chrome/120.0.6099.109 Electron/28.1.0 Safari/537.36" etag="GoC7AWJaXDjfBbfNVtt9" version="23.1.5" type="device">
  <diagram name="Страница — 1" id="AsmjFWyyXA_a_f0gqd3f">
    <mxGraphModel dx="366" dy="279" grid="1" gridSize="10" guides="1" tooltips="1" connect="1" arrows="1" fold="1" page="1" pageScale="1" pageWidth="827" pageHeight="1169" math="0" shadow="0">
      <root>
        <mxCell id="0" />
        <mxCell id="1" parent="0" />
        <mxCell id="yZ4iwfG-ot99XJUKMga5-24" value="" style="verticalLabelPosition=bottom;verticalAlign=top;html=1;shape=mxgraph.basic.half_circle;rotation=-90;" vertex="1" parent="1">
          <mxGeometry x="226" y="211" width="54" height="28" as="geometry" />
        </mxCell>
        <mxCell id="yZ4iwfG-ot99XJUKMga5-23" value="" style="verticalLabelPosition=bottom;verticalAlign=top;html=1;shape=mxgraph.basic.half_circle;rotation=90;" vertex="1" parent="1">
          <mxGeometry x="190" y="211" width="54" height="28" as="geometry" />
        </mxCell>
        <mxCell id="yZ4iwfG-ot99XJUKMga5-4" value="" style="html=1;rounded=0;" vertex="1" parent="1">
          <mxGeometry x="260" y="280" width="30" height="30" as="geometry" />
        </mxCell>
        <mxCell id="yZ4iwfG-ot99XJUKMga5-5" value="" style="endArrow=none;html=1;rounded=0;align=center;verticalAlign=top;endFill=0;labelBackgroundColor=none;endSize=2;exitX=0.5;exitY=0;exitDx=0;exitDy=0;" edge="1" source="yZ4iwfG-ot99XJUKMga5-7" target="yZ4iwfG-ot99XJUKMga5-22" parent="1">
          <mxGeometry relative="1" as="geometry">
            <mxPoint x="235" y="238.00000000000006" as="targetPoint" />
          </mxGeometry>
        </mxCell>
        <mxCell id="yZ4iwfG-ot99XJUKMga5-7" value="Движок" style="html=1;rounded=0;" vertex="1" parent="1">
          <mxGeometry x="170" y="280" width="130" height="80" as="geometry" />
        </mxCell>
        <mxCell id="yZ4iwfG-ot99XJUKMga5-8" value="" style="endArrow=none;html=1;rounded=0;align=center;verticalAlign=top;endFill=0;labelBackgroundColor=none;endSize=2;entryX=0.5;entryY=1;entryDx=0;entryDy=0;entryPerimeter=0;exitX=0.5;exitY=1;exitDx=0;exitDy=0;" edge="1" source="yZ4iwfG-ot99XJUKMga5-16" target="yZ4iwfG-ot99XJUKMga5-24" parent="1">
          <mxGeometry relative="1" as="geometry">
            <mxPoint x="290" y="230" as="sourcePoint" />
            <mxPoint x="282.75" y="259" as="targetPoint" />
          </mxGeometry>
        </mxCell>
        <mxCell id="yZ4iwfG-ot99XJUKMga5-11" value="" style="endArrow=none;html=1;rounded=0;align=center;verticalAlign=top;endFill=0;labelBackgroundColor=none;endSize=2;exitX=0.479;exitY=0.98;exitDx=0;exitDy=0;exitPerimeter=0;entryX=0.5;entryY=1;entryDx=0;entryDy=0;entryPerimeter=0;" edge="1" source="yZ4iwfG-ot99XJUKMga5-15" target="yZ4iwfG-ot99XJUKMga5-23" parent="1">
          <mxGeometry relative="1" as="geometry">
            <mxPoint x="260" y="230" as="sourcePoint" />
            <mxPoint x="200" y="220" as="targetPoint" />
          </mxGeometry>
        </mxCell>
        <UserObject label="&lt;font style=&quot;font-size: 16px;&quot;&gt;Интерактивная консоль&lt;/font&gt;" placeholders="1" name="Variable" id="yZ4iwfG-ot99XJUKMga5-15">
          <mxCell style="text;html=1;strokeColor=none;fillColor=none;align=center;verticalAlign=middle;whiteSpace=wrap;overflow=hidden;" vertex="1" parent="1">
            <mxGeometry x="104" y="130" width="140" height="50" as="geometry" />
          </mxCell>
        </UserObject>
        <UserObject label="&lt;font style=&quot;font-size: 16px;&quot;&gt;REST &lt;br&gt;Сервис&lt;/font&gt;" placeholders="1" name="Variable" id="yZ4iwfG-ot99XJUKMga5-16">
          <mxCell style="text;html=1;strokeColor=none;fillColor=none;align=center;verticalAlign=middle;whiteSpace=wrap;overflow=hidden;" vertex="1" parent="1">
            <mxGeometry x="240" y="135" width="100" height="40" as="geometry" />
          </mxCell>
        </UserObject>
        <mxCell id="yZ4iwfG-ot99XJUKMga5-22" value="" style="strokeWidth=2;html=1;shape=mxgraph.flowchart.start_2;whiteSpace=wrap;" vertex="1" parent="1">
          <mxGeometry x="210" y="200" width="50" height="50" as="geometry" />
        </mxCell>
      </root>
    </mxGraphModel>
  </diagram>
</mxfile>
